HIERARCHY
ROOT Hips
{
    OFFSET 0.000000 0.000000 0.000000
    CHANNELS 6 Xposition Yposition Zposition Zrotation Xrotation Yrotation
    JOINT Spine
    {
        OFFSET -0.000000 7.236184 0.000000
        CHANNELS 3 Zrotation Xrotation Yrotation
        JOINT Spine1
        {
            OFFSET -0.000000 20.420147 0.000000
            CHANNELS 3 Zrotation Xrotation Yrotation
            JOINT Neck
            {
                OFFSET -0.000000 20.336288 1.848754
                CHANNELS 3 Zrotation Xrotation Yrotation
                JOINT Head
                {
                    OFFSET -0.000000 12.354461 -1.764923
                    CHANNELS 3 Zrotation Xrotation Yrotation
                    End Site
                    {
                        OFFSET -0.000000 22.061537 0.000000
                    }
                }
            }
            JOINT LeftShoulder
            {
                OFFSET 3.573296 18.396038 -0.314103
                CHANNELS 3 Zrotation Xrotation Yrotation
                JOINT LeftArm
                {
                    OFFSET 10.880760 0.000000 0.000000
                    CHANNELS 3 Zrotation Xrotation Yrotation
                    JOINT LeftForeArm
                    {
                        OFFSET 27.185530 0.000000 0.000000
                        CHANNELS 3 Zrotation Xrotation Yrotation
                        JOINT LeftHand
                        {
                            OFFSET 27.825975 0.000000 0.000000
                            CHANNELS 3 Zrotation Xrotation Yrotation
                            End Site
                            {
                                OFFSET 13.236923 0.000000 0.000000
                            }
                        }
                    }
                }
            }
            JOINT RightShoulder
            {
                OFFSET -3.474926 18.396038 -0.314103
                CHANNELS 3 Zrotation Xrotation Yrotation
                JOINT RightArm
                {
                    OFFSET -10.880760 0.000000 0.000000
                    CHANNELS 3 Zrotation Xrotation Yrotation
                    JOINT RightForeArm
                    {
                        OFFSET -27.185530 0.000000 0.000000
                        CHANNELS 3 Zrotation Xrotation Yrotation
                        JOINT RightHand
                        {
                            OFFSET -27.825975 0.000000 0.000000
                            CHANNELS 3 Zrotation Xrotation Yrotation
                            End Site
                            {
                                OFFSET -13.236923 0.000000 0.000000
                            }
                        }
                    }
                }
            }
        }
    }
    JOINT LeftUpLeg
    {
        OFFSET 8.824615 0.000000 0.000000
        CHANNELS 3 Zrotation Xrotation Yrotation
        JOINT LeftLeg
        {
            OFFSET -0.000000 -35.111282 0.000000
            CHANNELS 3 Zrotation Xrotation Yrotation
            JOINT LeftFoot
            {
                OFFSET -0.000000 -42.324711 0.000000
                CHANNELS 3 Zrotation Xrotation Yrotation
                JOINT LeftToeBase
                {
                    OFFSET -0.000000 -5.735999 13.236923
                    CHANNELS 3 Zrotation Xrotation Yrotation
                    End Site
                    {
                        OFFSET -0.000000 0.000000 3.529846
                    }
                }
            }
        }
    }
    JOINT RightUpLeg
    {
        OFFSET -8.824615 0.000000 0.000000
        CHANNELS 3 Zrotation Xrotation Yrotation
        JOINT RightLeg
        {
            OFFSET -0.000000 -35.111282 0.000000
            CHANNELS 3 Zrotation Xrotation Yrotation
            JOINT RightFoot
            {
                OFFSET -0.000000 -42.324711 0.000000
                CHANNELS 3 Zrotation Xrotation Yrotation
                JOINT RightToeBase
                {
                    OFFSET -0.000000 -5.735999 13.236923
                    CHANNELS 3 Zrotation Xrotation Yrotation
                    End Site
                    {
                        OFFSET -0.000000 0.000000 3.529846
                    }
                }
            }
        }
    }
}
MOTION
Frames:    10
Frame Time:    0.008333
6.002719    82.035683    110.640121    0.860315    -15.308437    -174.457153    -3.202804    -12.500055    0.002470    1.545979    9.689404    0.222272    2.450276    -2.512763    -2.941674    4.242926    -12.975496    -2.407820    0.755980    14.594614    -7.698625    -35.212482    37.515335    -49.777561    -0.030417    -1.518425    -9.488622    12.193742    -1.235131    2.676456    3.401411    16.511478    -1.118720    35.316631    42.430454    46.593746    -6.747036    -8.420515    18.652275    -15.861915    -7.105463    -1.564009    13.013480    -21.579184    1.737720    0.148556    13.394398    4.642256    -14.286573    -4.493332    -14.852463    -0.164050    0.113989    0.181807    -13.227360    -15.121017    -6.161754    3.285019    9.523829    -3.052082    9.281784    -5.467399    -12.134779    -1.166195    0.705622    1.260112    
6.063437    82.037888    110.662254    0.922579    -15.328708    -174.304367    -3.184053    -12.458768    0.011318    1.486557    9.665646    0.233450    2.477506    -2.409853    -3.003801    4.256753    -13.037687    -2.469153    0.828397    14.483394    -7.791210    -35.051315    37.295822    -50.039116    0.371332    -1.769684    -9.974983    12.829773    -1.460910    2.458588    3.374207    16.434555    -1.078953    35.411419    42.109509    46.562580    -6.917288    -8.688874    18.909908    -15.992332    -7.315649    -1.661121    13.074704    -21.587969    1.637711    0.131518    13.263607    4.498878    -14.281401    -4.454382    -14.702077    -0.163834    0.119194    0.181565    -13.166390    -15.109845    -6.187329    3.307024    9.508641    -3.066390    9.234045    -5.479316    -12.222710    -1.165644    0.720994    1.259490    
6.123353    82.040154    110.683548    0.984239    -15.347568    -174.153046    -3.165304    -12.418588    0.020171    1.427941    9.643414    0.244170    2.504578    -2.308175    -3.065298    4.272573    -13.096066    -2.529405    0.899207    14.373920    -7.881911    -34.897915    37.078827    -50.295437    0.770081    -2.032839    -10.464626    13.456632    -1.695902    2.259769    3.347610    16.358486    -1.040028    35.504501    41.792465    46.530067    -7.085174    -8.952722    19.168007    -16.123932    -7.519989    -1.763506    13.135347    -21.596382    1.544205    0.115818    13.135097    4.359149    -14.280468    -4.413381    -14.561499    -0.164442    0.123010    0.182238    -13.105540    -15.097489    -6.210887    3.328358    9.493347    -3.080876    9.186243    -5.491002    -12.310756    -1.164773    0.734795    1.258526    
6.181712    82.042519    110.703255    1.044589    -15.364016    -174.004700    -3.146909    -12.380176    0.028571    1.370840    9.623343    0.254529    2.531631    -2.208089    -3.125512    4.291082    -13.148317    -2.587824    0.968160    14.268329    -7.969218    -34.758209    36.866436    -50.542522    1.163409    -2.304421    -10.954639    14.071595    -1.936345    2.080141    3.322006    16.284481    -1.003140    35.593937    41.484226    46.496555    -7.249950    -9.206517    19.425732    -16.255035    -7.713853    -1.865990    13.194474    -21.603737    1.461407    0.102629    13.010651    4.226447    -14.286895    -4.368948    -14.438023    -0.166326    0.124695    0.184326    -13.045113    -15.082909    -6.230695    3.348494    9.478136    -3.095680    9.138397    -5.502440    -12.398969    -1.163219    0.746066    1.256827    
6.238750    82.045021    110.721123    1.104031    -15.377571    -173.858475    -3.128789    -12.343668    0.036409    1.315092    9.605878    0.264306    2.558349    -2.109799    -3.184829    4.314207    -13.191669    -2.644369    1.035884    14.166406    -8.052435    -34.633934    36.658276    -50.781342    1.554765    -2.584499    -11.449982    14.682512    -2.181918    1.917622    3.296960    16.212149    -0.968084    35.679703    41.184361    46.462265    -7.413497    -9.449387    19.684881    -16.385727    -7.896441    -1.965078    13.252323    -21.609585    1.390202    0.092319    12.890039    4.100447    -14.303106    -4.320126    -14.333216    -0.169998    0.123211    0.188396    -12.984321    -15.065307    -6.245694    3.367320    9.462850    -3.112348    9.090346    -5.513538    -12.487437    -1.161074    0.753651    1.254497    
6.293331    82.047630    110.736549    1.161370    -15.387632    -173.717041    -3.111395    -12.309947    0.043369    1.261653    9.591503    0.273141    2.584852    -2.015021    -3.241977    4.341372    -13.224245    -2.698016    1.101534    14.070811    -8.129274    -34.529228    36.458359    -51.007519    1.937848    -2.865598    -11.943389    15.280639    -2.425401    1.773639    3.273166    16.143061    -0.935628    35.759174    40.899368    46.428345    -7.573621    -9.675238    19.940769    -16.512344    -8.063194    -2.055030    13.307602    -21.613344    1.331056    0.085040    12.775607    3.984117    -14.327912    -4.268256    -14.248848    -0.175186    0.118378    0.194146    -12.924375    -15.044371    -6.255080    3.384627    9.447710    -3.131553    9.043789    -5.524386    -12.574028    -1.158469    0.757629    1.251676    
6.346288    82.050316    110.749695    1.217618    -15.394116    -173.578156    -3.094091    -12.278563    0.049433    1.209194    9.580288    0.281079    2.612101    -1.922497    -3.297730    4.372654    -13.245526    -2.749699    1.167071    13.980475    -8.200369    -34.443211    36.263618    -51.225555    2.319462    -3.149508    -12.444351    15.875481    -2.667881    1.644665    3.249845    16.075895    -0.905107    35.833275    40.625439    46.395130    -7.733529    -9.886925    20.197069    -16.635332    -8.216493    -2.134273    13.361249    -21.614597    1.281365    0.080259    12.665371    3.876429    -14.358903    -4.213450    -14.182327    -0.181366    0.111513    0.200997    -12.864219    -15.019704    -6.259031    3.400712    9.432686    -3.156258    9.000042    -5.535499    -12.657398    -1.155454    0.758452    1.248417    
6.396609    82.052979    110.760307    1.271630    -15.397132    -173.444214    -3.077048    -12.250463    0.054453    1.158126    9.572824    0.287840    2.639345    -1.834707    -3.351250    4.408155    -13.254123    -2.798500    1.232229    13.897001    -8.263875    -34.377747    36.078022    -51.432598    2.693719    -3.428173    -12.945535    16.454075    -2.901845    1.531551    3.227393    16.011532    -0.877250    35.900551    40.367584    46.364090    -7.890780    -10.080253    20.448423    -16.750711    -8.353594    -2.199100    13.412105    -21.613304    1.239146    0.077418    12.560971    3.780572    -14.392259    -4.157767    -14.132864    -0.187663    0.103735    0.207979    -12.805509    -14.991910    -6.257856    3.415864    9.418034    -3.188474    8.962296    -5.547106    -12.733441    -1.152373    0.756159    1.245092    
6.444546    82.055519    110.768631    1.323755    -15.397182    -173.314240    -3.059706    -12.225813    0.058251    1.107465    9.569228    0.293503    2.666913    -1.751985    -3.402838    4.447442    -13.249765    -2.844922    1.297527    13.819625    -8.319808    -34.331161    35.901291    -51.631058    3.063351    -3.699934    -13.450422    17.016741    -3.125335    1.432338    3.205616    15.948852    -0.851613    35.962059    40.124184    46.335365    -8.046371    -10.257016    20.694965    -16.856934    -8.476345    -2.248283    13.460496    -21.609898    1.200850    0.075614    12.461777    3.697663    -14.425800    -4.101833    -14.098193    -0.193643    0.096322    0.214609    -12.748182    -14.961626    -6.253246    3.430117    9.404121    -3.229716    8.933093    -5.559408    -12.799710    -1.148966    0.750870    1.241419    
6.489743    82.057785    110.774902    1.373639    -15.395039    -173.188995    -3.041749    -12.205050    0.060990    1.056870    9.569416    0.297853    2.694500    -1.675542    -3.452236    4.489890    -13.232570    -2.888891    1.363206    13.748868    -8.367261    -34.302135    35.734924    -51.821808    3.426181    -3.959716    -13.955810    17.555868    -3.333626    1.346250    3.184499    15.887990    -0.828523    36.017742    39.896187    46.309906    -8.199050    -10.417141    20.934296    -16.951891    -8.585302    -2.281319    13.506076    -21.605318    1.164274    0.074276    12.368522    3.628640    -14.457928    -4.046756    -14.076283    -0.198800    0.090152    0.220327    -12.693207    -14.930168    -6.247122    3.443692    9.391643    -3.277374    8.913990    -5.572847    -12.856438    -1.145093    0.742592    1.237248    
